
endheader
time	pelvis_tilt	pelvis_list	pelvis_rotation	pelvis_tx	pelvis_ty	pelvis_tz	hip_flexion_r	hip_adduction_r	hip_rotation_r	knee_angle_r	ankle_angle_r	subtalar_angle_r	mtp_angle_r	hip_flexion_l	hip_adduction_l	hip_rotation_l	knee_angle_l	ankle_angle_l	subtalar_angle_l	mtp_angle_l	lumbar_extension	lumbar_bending	lumbar_rotation	arm_flex_r	arm_add_r	arm_rot_r	elbow_flex_r	pro_sup_r	wrist_flex_r	wrist_dev_r	arm_flex_l	arm_add_l	arm_rot_l	elbow_flex_l	pro_sup_l	wrist_flex_l	wrist_dev_l
5.425	-0.167214	0.060359	3.31205	-0.312507	0.95164	-0.0215934	0.239117	0.0623482	-0.264896	0.537041	0.124417	0	0	-0.0650527	-0.208012	-0.0418385	1.1275	-0.303175	0	0	-0.365794	0.178651	-0.0777779	0.176279	-0.317118	1.53854	0.35495	-0.00710675	0	0	0.585619	-0.232421	1.50917	0.54425	0.230683	0	0
5.43499	-0.168238	0.0569382	3.30961	-0.311924	0.954736	-0.0231279	0.215439	0.0663095	-0.259277	0.523219	0.133752	0	0	-0.0332065	-0.204579	-0.0406965	1.15844	-0.298708	0	0	-0.36814	0.172346	-0.0737744	0.205782	-0.31179	1.54663	0.361129	-0.00640888	0	0	0.562305	-0.226349	1.53317	0.517629	0.184836	0	0
5.44498	-0.168885	0.0523942	3.30642	-0.311228	0.957905	-0.0246704	0.191314	0.0690993	-0.252553	0.507672	0.141781	0	0	-0.00228143	-0.199062	-0.0402715	1.18368	-0.287914	0	0	-0.370271	0.1645	-0.0699622	0.235937	-0.306303	1.55438	0.367648	-0.00451529	0	0	0.537003	-0.221982	1.5515	0.493867	0.142794	0	0
5.45497	-0.169177	0.0468303	3.30234	-0.310434	0.961098	-0.0262326	0.166926	0.0707499	-0.24467	0.49076	0.148623	0	0	0.0275286	-0.191767	-0.0410391	1.20304	-0.272316	0	0	-0.37218	0.155178	-0.0660626	0.266514	-0.300796	1.56136	0.374695	-0.000985529	0	0	0.509994	-0.219284	1.56474	0.473034	0.105418	0	0
5.46496	-0.169166	0.0403908	3.29726	-0.309555	0.964262	-0.0278225	0.142429	0.0713356	-0.235622	0.472833	0.154434	0	0	0.0560517	-0.183053	-0.0433651	1.21644	-0.253322	0	0	-0.373891	0.144511	-0.0618199	0.297316	-0.295434	1.56728	0.382477	0.00466586	0	0	0.481608	-0.218155	1.57367	0.455062	0.0733624	0	0
5.47495	-0.16892	0.0332562	3.29114	-0.308599	0.967342	-0.0294429	0.117957	0.0709642	-0.225458	0.454241	0.159397	0	0	0.0831524	-0.173303	-0.0474852	1.2239	-0.232111	0	0	-0.375443	0.13269	-0.0570271	0.328175	-0.290394	1.57189	0.391201	0.0129342	0	0	0.452185	-0.218455	1.57915	0.439778	0.047044	0	0
5.48494	-0.168525	0.0256361	3.28396	-0.307576	0.970286	-0.0310919	0.0936266	0.0697736	-0.214285	0.435324	0.163699	0	0	0.108728	-0.16291	-0.0534981	1.22555	-0.209604	0	0	-0.376892	0.119962	-0.0515346	0.358952	-0.285865	1.57502	0.401079	0.0242681	0	0	0.422059	-0.220015	1.58198	0.426942	0.0264876	0	0
5.49494	-0.168078	0.0177555	3.27579	-0.306493	0.973044	-0.0327622	0.0695206	0.0679231	-0.202261	0.416409	0.167534	0	0	0.132696	-0.152246	-0.06137	1.22157	-0.186489	0	0	-0.37831	0.106614	-0.0452578	0.38952	-0.282035	1.57647	0.412324	0.0389877	0	0	0.391543	-0.222644	1.5829	0.416274	0.0112498	0	0
5.50493	-0.16769	0.00983846	3.26675	-0.305361	0.975571	-0.0344411	0.045679	0.0655831	-0.189591	0.397778	0.171097	0	0	0.154992	-0.141638	-0.0709405	1.21218	-0.163274	0	0	-0.379779	0.0929543	-0.0381779	0.419753	-0.279081	1.57599	0.425136	0.057171	0	0	0.360915	-0.226152	1.58252	0.407477	0.00062326	0	0
5.51492	-0.167463	0.00210143	3.25703	-0.304191	0.977827	-0.036112	0.0221057	0.0629327	-0.176518	0.379654	0.174581	0	0	0.175578	-0.131365	-0.0819439	1.19765	-0.140352	0	0	-0.381379	0.0792985	-0.0303301	0.44951	-0.277165	1.5733	0.439685	0.0787013	0	0	0.330419	-0.230353	1.58134	0.400249	-0.00621147	0	0
5.52491	-0.167484	-0.00525059	3.24686	-0.302991	0.979779	-0.0377544	-0.00121379	0.0601574	-0.163305	0.3622	0.178154	0	0	0.194455	-0.121645	-0.0940398	1.17822	-0.118066	0	0	-0.383188	0.065958	-0.0217878	0.478645	-0.276437	1.56804	0.456119	0.103363	0	0	0.300272	-0.235073	1.57974	0.394304	-0.01008	0	0
5.5349	-0.167818	-0.0120298	3.23651	-0.30177	0.981401	-0.039345	-0.0243097	0.0574451	-0.150222	0.345517	0.181956	0	0	0.211654	-0.112636	-0.106842	1.15418	-0.0967501	0	0	-0.38528	0.0532327	-0.0126521	0.507006	-0.277031	1.55984	0.474551	0.130928	0	0	0.270666	-0.240154	1.57801	0.389386	-0.011746	0	0
5.54489	-0.168504	-0.0180733	3.22626	-0.300531	0.982675	-0.0408581	-0.0472239	0.0549804	-0.137546	0.329642	0.186093	0	0	0.227236	-0.10444	-0.119944	1.12577	-0.0767342	0	0	-0.387715	0.0413976	-0.0030488	0.534435	-0.279055	1.54835	0.495043	0.161157	0	0	0.241772	-0.245456	1.57633	0.385276	-0.0118729	0	0
